{"title":"Teesra Shabd (2013) DVDRip Xvid EngSubs IcTv - Hindi","uid":8905558,"size":726463950,"categoryP":"video","categoryS":"movies","magnet":"?xt=urn:btih:e0ff37deb8640361209295cba30e26a864cc11db&amp;dn=Teesra+Shabd+%282013%29+DVDRip+Xvid+EngSubs+IcTv+-+Hindi&amp;tr=udp%3A%2F%2Ftracker.openbittorrent.com%3A80&amp;tr=udp%3A%2F%2Fopen.demonii.com%3A1337&amp;tr=udp%3A%2F%2Ftracker.coppersurfer.tk%3A6969&amp;tr=udp%3A%2F%2Fexodus.desync.com%3A6969","seeders":1,"leechers":0,"uploader":"SJonam","files":1,"time":1378898332,"description":" &lt;a href=&quot;http://s18.postimg.org/q1xcnecvd/9999999999.jpg&quot; rel=&quot;nofollow&quot; target=&quot;_NEW&quot;&gt;http://s18.postimg.org/q1xcnecvd/9999999999.jpg&lt;/a&gt; &lt;a href=&quot;\nhttp://img6.imageshack.us/img6/7346/w55i.jpg&quot; rel=&quot;nofollow&quot; target=&quot;_NEW&quot;&gt;\nhttp://img6.imageshack.us/img6/7346/w55i.jpg&lt;/a&gt; &lt;a href=&quot;\nhttp://t1.someimage.com/vUD6Aof.jpg&quot; rel=&quot;nofollow&quot; target=&quot;_NEW&quot;&gt;\nhttp://t1.someimage.com/vUD6Aof.jpg&lt;/a&gt; &lt;a href=&quot;\nhttp://t1.someimage.com/5TlTPQs.jpg&quot; rel=&quot;nofollow&quot; target=&quot;_NEW&quot;&gt;\nhttp://t1.someimage.com/5TlTPQs.jpg&lt;/a&gt; &lt;a href=&quot;\nhttp://t1.someimage.com/o2vKNYH.jpg&quot; rel=&quot;nofollow&quot; target=&quot;_NEW&quot;&gt;\nhttp://t1.someimage.com/o2vKNYH.jpg&lt;/a&gt; &lt;a href=&quot;\nhttp://t1.someimage.com/rvrvy4v.jpg&quot; rel=&quot;nofollow&quot; target=&quot;_NEW&quot;&gt;\nhttp://t1.someimage.com/rvrvy4v.jpg&lt;/a&gt; &lt;a href=&quot;\nhttp://t1.someimage.com/yEqeWmZ.jpg&quot; rel=&quot;nofollow&quot; target=&quot;_NEW&quot;&gt;\nhttp://t1.someimage.com/yEqeWmZ.jpg&lt;/a&gt;\n\nMedia Info - \nGeneral\nComplete name : Teesra Shabd (2013) DVD Rip - Xvid - [1-CD] - Eng Subs - Team IcTv Exclusive.avi\nFormat : AVI\nFormat/Info : Audio Video Interleave\nFile size : 693 MiB\nDuration : 2h 7mn\nOverall bit rate : 759 Kbps\n\nVideo\nFormat : MPEG-4 Visual\nFormat profile : Advanced Simple@L5\nFormat settings, BVOP : 2\nFormat settings, QPel : No\nFormat settings, GMC : No warppoints\nFormat settings, Matrix : Default (H.263)\nCodec ID : XVID\nCodec ID/Hint : XviD\nDuration : 2h 7mn\nBit rate : 625 Kbps\nWidth : 640 pixels\nHeight : 272 pixels\nDisplay aspect ratio : 2.35:1\nFrame rate : 25.000 fps\nColor space : YUV\nChroma subsampling : 4:2:0\nBit depth : 8 bits\nScan type : Progressive\nCompression mode : Lossy\nBits/(Pixel*Frame) : 0.144\nStream size : 570 MiB (82%)\nWriting library : XviD 1.2.1 (UTC 2008-12-04)\n\nAudio\nFormat : MPEG Audio\nFormat version : Version 1\nFormat profile : Layer 3\nMode : Joint stereo\nMode extension : MS Stereo\nCodec ID : 55\nCodec ID/Hint : MP3\nDuration : 2h 7mn\nBit rate mode : Constant\nBit rate : 128 Kbps\nChannel(s) : 2 channels\nSampling rate : 48.0 KHz\nCompression mode : Lossy\nStream size : 117 MiB (17%)\nAlignment : Aligned on interleaves\nInterleave, duration : 160 ms (4.00 video frames)\nInterleave, preload duration : 216 ms\nTitle : VTS_01.0001 T80 2_0ch 192Kbps DELAY 0ms_new\nWriting library : LAME3.99r\nEncoding settings : -m j -V 4 -q 2 -lowpass 17 -b 128\n\nSample - http://www.multiupload.nl/JV1LY31152\n\nRipper : Lottery\n\nSeeding 24x7... Extreme Seeding...\n\n\nEnjoy!\n","torrent":{"xt":"urn:btih:e0ff37deb8640361209295cba30e26a864cc11db","amp;dn":"Teesra+Shabd+%282013%29+DVDRip+Xvid+EngSubs+IcTv+-+Hindi","amp;tr":["udp%3A%2F%2Ftracker.openbittorrent.com%3A80","udp%3A%2F%2Fopen.demonii.com%3A1337","udp%3A%2F%2Ftracker.coppersurfer.tk%3A6969","udp%3A%2F%2Fexodus.desync.com%3A6969"],"infoHash":"e0ff37deb8640361209295cba30e26a864cc11db","infoHashBuffer":{"type":"Buffer","data":[224,255,55,222,184,100,3,97,32,146,149,203,163,14,38,168,100,204,17,219]},"announce":[],"urlList":[]}}